<?xml version="1.0" encoding="utf-8"?>
<!-- Generator: Adobe Illustrator 22.0.1, SVG Export Plug-In . SVG Version: 6.00 Build 0)  -->
<svg version="1.1" id="Ebene_1" xmlns="http://www.w3.org/2000/svg" xmlns:xlink="http://www.w3.org/1999/xlink" x="0px" y="0px"
	 viewBox="0 0 214 214" enable-background="new 0 0 214 214" xml:space="preserve">
<polygon fill="none" stroke="#FFFFFF" stroke-width="3" stroke-miterlimit="10" points="55.5,196.2 4,107 55.5,17.8 158.5,17.8 
	210,107 158.5,196.2 "/>
<polygon fill="#FFFFFF" stroke="#FFFFFF" stroke-miterlimit="10" points="136.1,52.2 105.1,52.2 105.1,67 105.1,67 105.1,54.1 
	135,54.1 165.9,107.6 135,161.1 73.2,161.1 42.1,107.2 40.4,108.1 72.1,163.1 136.1,163.1 167.8,108.1 168.1,107.6 "/>
<polygon fill="#FFFFFF" stroke="#FFFFFF" stroke-miterlimit="10" points="105.1,52.2 103.2,52.2 103.2,75.2 65.1,53.2 104.9,32.1 
	104,30.4 61.1,53.1 105.1,78.5 105.1,54.1 105.1,54.1 "/>
</svg>
